<svg xmlns="http://www.w3.org/2000/svg" viewBox="0 0 220 220" fill="none" stroke="#C9A84C" stroke-width="0.7" stroke-linecap="round" stroke-linejoin="round">
  <defs>
    <radialGradient id="frame-glow" cx="50%" cy="50%" r="50%">
      <stop offset="80%" stop-color="#C9A84C" stop-opacity="0"/>
      <stop offset="100%" stop-color="#C9A84C" stop-opacity="0.25"/>
    </radialGradient>
  </defs>
  <circle cx="110" cy="110" r="100" stroke-width="0.6" opacity="0.55"/>
  <circle cx="110" cy="110" r="95" stroke-width="0.4" opacity="0.40" stroke-dasharray="0.6 4"/>
  <circle cx="110" cy="110" r="108" fill="url(#frame-glow)" stroke="none"/>

  <g transform="translate(110 10)">
    <path d="M -14 0 C -10 -4, -4 -6, 0 -6 C 4 -6, 10 -4, 14 0" opacity="0.9"/>
    <circle cx="0" cy="-7" r="2.4" fill="#C9A84C" stroke="none" opacity="0.9"/>
    <circle cx="-16" cy="0" r="1.2" fill="#C9A84C" stroke="none" opacity="0.7"/>
    <circle cx="16" cy="0" r="1.2" fill="#C9A84C" stroke="none" opacity="0.7"/>
    <path d="M 0 -12 L 0 -16" opacity="0.6"/>
  </g>

  <g transform="translate(110 210)">
    <path d="M -14 0 C -10 4, -4 6, 0 6 C 4 6, 10 4, 14 0" opacity="0.9"/>
    <circle cx="0" cy="7" r="2.4" fill="#C9A84C" stroke="none" opacity="0.9"/>
    <circle cx="-16" cy="0" r="1.2" fill="#C9A84C" stroke="none" opacity="0.7"/>
    <circle cx="16" cy="0" r="1.2" fill="#C9A84C" stroke="none" opacity="0.7"/>
  </g>

  <g transform="translate(10 110)">
    <path d="M 0 -10 C 4 -7, 6 -3, 6 0 C 6 3, 4 7, 0 10" opacity="0.85"/>
    <circle cx="-3" cy="0" r="1.6" fill="#C9A84C" stroke="none" opacity="0.75"/>
  </g>

  <g transform="translate(210 110)">
    <path d="M 0 -10 C -4 -7, -6 -3, -6 0 C -6 3, -4 7, 0 10" opacity="0.85"/>
    <circle cx="3" cy="0" r="1.6" fill="#C9A84C" stroke="none" opacity="0.75"/>
  </g>

  <g opacity="0.55">
    <circle cx="46" cy="46" r="1.4" fill="#C9A84C" stroke="none"/>
    <circle cx="174" cy="46" r="1.4" fill="#C9A84C" stroke="none"/>
    <circle cx="46" cy="174" r="1.4" fill="#C9A84C" stroke="none"/>
    <circle cx="174" cy="174" r="1.4" fill="#C9A84C" stroke="none"/>
  </g>
</svg>
